#N canvas 628 23 741 776 10;
#X obj 144 151 select 0 1 2 3 4 5 6 7, f 58;
#X obj 147 103 hsl 300 15 0 7 0 0 empty empty empty -2 -8 0 10 -262144
-1 -1 4271 1;
#X msg 187 178 0;
#X msg 224 177 2;
#X msg 269 186 3;
#X msg 361 187 7;
#X msg 489 182 12;
#X obj 166 345 mtof;
#X obj 144 128 i;
#X obj 166 436 phasor~;
#X obj 166 457 *~ 2;
#X obj 166 478 -~ 1;
#X obj 29 532 phasor~;
#X obj 29 553 *~ 2;
#X obj 29 574 -~ 1;
#X obj 135 616 +~;
#X msg 312 192 6;
#X msg 400 187 9;
#X msg 442 185 10;
#X obj 31 513 mtof;
#X obj 122 104 bng 15 250 50 0 empty empty empty 17 7 0 10 -262144
-1 -1;
#X msg 31 442 38;
#X obj 235 311 + 48;
#X obj 52 410 loadbang;
#X obj 166 390 pack \$1 \$2;
#X obj 166 411 line, f 9;
#X msg 166 366 \$1;
#X obj 575 132 loadbang;
#X msg 575 153 100;
#X obj 435 555 vsl 15 128 0 2 0 0 empty empty empty 0 -9 0 10 -262144
-1 -1 8273 1;
#X obj 373 541 vsl 15 128 100 4000 0 0 empty empty empty 0 -9 0 10
-262144 -1 -1 5846 1;
#X floatatom 511 293 5 0 0 0 - - -;
#X obj 669 286 delay \$1;
#X obj 559 348 t b;
#X obj 581 385 random 3900;
#X obj 581 406 + 100;
#X floatatom 505 428 5 0 0 0 - - -;
#X floatatom 581 427 5 0 0 0 - - -;
#X obj 505 408 / 10;
#X obj 642 213 loadbang;
#X obj 503 466 pack \$1 \$2;
#X obj 583 465 pack \$1 \$2;
#X obj 499 510 line, f 7;
#X obj 589 510 line, f 7;
#X obj 580 291 + 3000;
#X obj 260 703 vcf~, f 18;
#X obj 373 677 sig~;
#X obj 580 271 random 2000;
#X obj 525 751 writesf~;
#X msg 547 671 start;
#X msg 573 700 stop;
#X obj 505 387 random 20;
#X floatatom 438 364 5 0 0 0 - - -;
#X obj 436 382 pack \$1 \$2;
#X obj 436 408 line, f 7;
#X obj 438 324 / 100;
#X obj 52 485 +;
#X floatatom 436 429 5 0 0 0 - - -;
#X obj 255 389 mtof;
#X obj 255 480 phasor~;
#X obj 255 501 *~ 2;
#X obj 255 522 -~ 1;
#X obj 255 434 pack \$1 \$2;
#X obj 255 455 line, f 9;
#X msg 255 410 \$1;
#X msg 15 236 3;
#X obj 123 288 + 48;
#X msg 46 240 6;
#X msg 84 241 7;
#X msg 116 240 9;
#X msg 148 237 10;
#X msg 182 239 12;
#X msg 215 237 14;
#X msg 247 238 15;
#X obj 336 346 vsl 15 128 0 1 0 0 empty empty empty 0 -9 0 10 -262144
-1 -1 6350 1;
#X obj 256 543 *~;
#X obj 191 567 +~;
#X obj 215 662 /~;
#X obj 307 571 + 2;
#X msg 520 642 open noise.wav;
#X obj 437 303 random 60;
#X obj 438 345 - 0.3;
#X obj 253 734 dac~;
#X obj 578 175 hsl 128 15 100 1000 0 0 empty empty empty -2 -8 0 10
-262144 -1 -1 10200 1;
#X msg 139 40 0;
#X obj 122 76 t b f;
#X msg 169 40 1;
#X msg 199 40 2;
#X msg 229 40 3;
#X msg 259 40 4;
#X msg 289 40 5;
#X msg 319 40 6;
#X msg 349 40 7;
#X obj 336 297 loadbang;
#X msg 336 318 0.5;
#X obj 169 14 loadbang;
#X connect 0 0 2 0;
#X connect 0 0 65 0;
#X connect 0 1 3 0;
#X connect 0 1 67 0;
#X connect 0 2 4 0;
#X connect 0 2 68 0;
#X connect 0 3 16 0;
#X connect 0 3 69 0;
#X connect 0 4 5 0;
#X connect 0 4 70 0;
#X connect 0 5 17 0;
#X connect 0 5 71 0;
#X connect 0 6 18 0;
#X connect 0 6 72 0;
#X connect 0 7 6 0;
#X connect 0 7 73 0;
#X connect 1 0 8 1;
#X connect 2 0 22 0;
#X connect 3 0 22 0;
#X connect 4 0 22 0;
#X connect 5 0 22 0;
#X connect 6 0 22 0;
#X connect 7 0 26 0;
#X connect 8 0 0 0;
#X connect 9 0 10 0;
#X connect 10 0 11 0;
#X connect 11 0 76 0;
#X connect 12 0 13 0;
#X connect 13 0 14 0;
#X connect 14 0 15 0;
#X connect 15 0 77 0;
#X connect 16 0 22 0;
#X connect 17 0 22 0;
#X connect 18 0 22 0;
#X connect 19 0 12 0;
#X connect 20 0 8 0;
#X connect 21 0 56 1;
#X connect 22 0 7 0;
#X connect 23 0 21 0;
#X connect 24 0 25 0;
#X connect 25 0 9 0;
#X connect 26 0 24 0;
#X connect 27 0 28 0;
#X connect 28 0 83 0;
#X connect 29 0 45 2;
#X connect 30 0 46 0;
#X connect 32 0 47 0;
#X connect 33 0 34 0;
#X connect 33 0 51 0;
#X connect 33 0 80 0;
#X connect 34 0 35 0;
#X connect 35 0 37 0;
#X connect 36 0 40 0;
#X connect 37 0 41 0;
#X connect 38 0 36 0;
#X connect 39 0 47 0;
#X connect 40 0 42 0;
#X connect 41 0 43 0;
#X connect 42 0 29 0;
#X connect 43 0 30 0;
#X connect 44 0 32 0;
#X connect 44 0 33 0;
#X connect 44 0 40 1;
#X connect 44 0 41 1;
#X connect 44 0 53 1;
#X connect 45 0 48 0;
#X connect 45 0 82 0;
#X connect 45 0 82 1;
#X connect 46 0 45 1;
#X connect 47 0 31 0;
#X connect 47 0 44 0;
#X connect 49 0 48 0;
#X connect 50 0 48 0;
#X connect 51 0 38 0;
#X connect 52 0 53 0;
#X connect 53 0 54 0;
#X connect 54 0 56 0;
#X connect 54 0 57 0;
#X connect 55 0 81 0;
#X connect 56 0 19 0;
#X connect 58 0 64 0;
#X connect 59 0 60 0;
#X connect 60 0 61 0;
#X connect 61 0 75 0;
#X connect 62 0 63 0;
#X connect 63 0 59 0;
#X connect 64 0 62 0;
#X connect 65 0 66 0;
#X connect 66 0 58 0;
#X connect 67 0 66 0;
#X connect 68 0 66 0;
#X connect 69 0 66 0;
#X connect 70 0 66 0;
#X connect 71 0 66 0;
#X connect 72 0 66 0;
#X connect 73 0 66 0;
#X connect 74 0 75 1;
#X connect 74 0 78 0;
#X connect 75 0 76 1;
#X connect 76 0 15 1;
#X connect 77 0 45 0;
#X connect 78 0 77 1;
#X connect 79 0 48 0;
#X connect 80 0 55 0;
#X connect 81 0 52 0;
#X connect 83 0 24 1;
#X connect 83 0 62 1;
#X connect 84 0 85 0;
#X connect 85 0 20 0;
#X connect 85 1 1 0;
#X connect 86 0 85 0;
#X connect 87 0 85 0;
#X connect 88 0 85 0;
#X connect 89 0 85 0;
#X connect 90 0 85 0;
#X connect 91 0 85 0;
#X connect 92 0 85 0;
#X connect 93 0 94 0;
#X connect 94 0 74 0;
#X connect 95 0 86 0;
